<svg width="14" height="14" viewBox="0 0 14 14" fill="none" xmlns="http://www.w3.org/2000/svg">
  <path d="M6.99999 3.71L7.48999 5.3L7.80999 6.36H10.73L9.18999 7.54L8.36999 8.17L8.66999 9.17L9.20999 10.93L7.90999 9.93L6.99999 9.22999L6.08999 9.93L4.78999 10.93L5.32999 9.17L5.62999 8.17L4.80999 7.54L3.26999 6.36H6.18999L6.50999 5.3L6.99999 3.71ZM6.99999 -4.75226e-06C6.87492 -0.00118334 6.75282 0.038101 6.6519 0.111989C6.55097 0.185877 6.47664 0.29041 6.43999 0.409995L5.07999 4.86H0.589989C0.47959 4.8715 0.374677 4.91392 0.287301 4.98237C0.199925 5.05082 0.133631 5.14254 0.0960338 5.24697C0.058437 5.35141 0.0510627 5.46433 0.0747581 5.57277C0.0984535 5.68121 0.152257 5.78076 0.229989 5.86L3.88999 8.72999L2.50999 13.25C2.48326 13.3372 2.47746 13.4294 2.49306 13.5192C2.50866 13.6091 2.54521 13.694 2.59977 13.767C2.65432 13.8401 2.72532 13.8993 2.80702 13.9397C2.88872 13.9802 2.97882 14.0009 3.06999 14C3.19615 13.9966 3.31826 13.9547 3.41999 13.88L6.99999 11.12L10.58 13.87C10.6775 13.9536 10.8016 13.9997 10.93 14C11.0216 13.9992 11.1117 13.9771 11.1933 13.9355C11.2749 13.8938 11.3457 13.8337 11.4 13.76C11.4543 13.6863 11.4908 13.6009 11.5064 13.5106C11.522 13.4204 11.5164 13.3277 11.49 13.24L10.11 8.72999L13.77 5.91C13.8477 5.83076 13.9015 5.73121 13.9252 5.62277C13.9489 5.51433 13.9415 5.40141 13.9039 5.29697C13.8663 5.19254 13.8001 5.10082 13.7127 5.03237C13.6253 4.96392 13.5204 4.9215 13.41 4.91H8.91999L7.55999 0.409995C7.52333 0.29041 7.449 0.185877 7.34808 0.111989C7.24716 0.038101 7.12506 -0.00118334 6.99999 -4.75226e-06Z" fill="black"/>
</svg>
