<svg width="14" height="14" viewBox="0 0 14 14" fill="none" xmlns="http://www.w3.org/2000/svg">
<path d="M6.99999 3.71003L7.48999 5.30003L7.80999 6.36003H10.73L9.18999 7.54003L8.36999 8.17003L8.66999 9.17003L9.20999 10.93L7.90999 9.93003L6.99999 9.23003L6.08999 9.93003L4.78999 10.93L5.32999 9.17003L5.62999 8.17003L4.80999 7.54003L3.26999 6.36003H6.18999L6.50999 5.30003L6.99999 3.71003ZM6.99999 2.57653e-05C6.87492 -0.00115283 6.75282 0.0381315 6.6519 0.11202C6.55097 0.185908 6.47664 0.29044 6.43999 0.410026L5.07999 4.86003H0.589989C0.47959 4.87153 0.374677 4.91395 0.287301 4.9824C0.199925 5.05085 0.133631 5.14257 0.0960338 5.247C0.058437 5.35144 0.0510627 5.46436 0.0747581 5.5728C0.0984535 5.68124 0.152257 5.78079 0.229989 5.86003L3.88999 8.73003L2.50999 13.25C2.48326 13.3372 2.47746 13.4294 2.49306 13.5193C2.50866 13.6091 2.54521 13.694 2.59977 13.7671C2.65432 13.8401 2.72532 13.8993 2.80702 13.9398C2.88872 13.9802 2.97882 14.0009 3.06999 14C3.19615 13.9966 3.31826 13.9547 3.41999 13.88L6.99999 11.12L10.58 13.87C10.6775 13.9536 10.8016 13.9997 10.93 14C11.0216 13.9993 11.1117 13.9772 11.1933 13.9355C11.2749 13.8939 11.3457 13.8338 11.4 13.76C11.4543 13.6863 11.4908 13.6009 11.5064 13.5107C11.522 13.4204 11.5164 13.3277 11.49 13.24L10.11 8.73003L13.77 5.91003C13.8477 5.83079 13.9015 5.73124 13.9252 5.6228C13.9489 5.51436 13.9415 5.40144 13.9039 5.297C13.8663 5.19257 13.8001 5.10085 13.7127 5.0324C13.6253 4.96395 13.5204 4.92153 13.41 4.91003H8.91999L7.55999 0.410026C7.52333 0.29044 7.449 0.185908 7.34808 0.11202C7.24716 0.0381315 7.12506 -0.00115283 6.99999 2.57653e-05Z" fill="#757986"/>
</svg>
